<svg width="638" height="638" viewBox="0 0 638 638" fill="none" xmlns="http://www.w3.org/2000/svg">
<circle cx="319" cy="319" r="314" transform="rotate(180 319 319)" fill="#2E3A53" stroke="black" stroke-width="10"/>
<circle cx="318.5" cy="318.5" r="268.5" fill="#81D384" stroke="black" stroke-width="10"/>
<g clip-path="url(#clip0_38_246)">
<g style="mix-blend-mode:darken">
<ellipse cx="237" cy="295.412" rx="44.4706" ry="45.1765" transform="rotate(180 237 295.412)" fill="#81D384"/>
</g>
<g style="mix-blend-mode:darken">
<ellipse cx="414.882" cy="295.412" rx="44.4706" ry="45.1765" transform="rotate(180 414.882 295.412)" fill="#81D384"/>
</g>
<rect x="161.706" y="182.451" width="323.529" height="194.549" rx="20" fill="white" stroke="black" stroke-width="10"/>
<path d="M297.471 280.353C297.471 301.923 280.278 319.275 259.235 319.275C238.192 319.275 221 301.923 221 280.353C221 258.783 238.192 241.431 259.235 241.431C280.278 241.431 297.471 258.783 297.471 280.353Z" fill="#514D4D" fill-opacity="0.87" stroke="black" stroke-width="10"/>
<path d="M430.882 280.353C430.882 301.923 413.69 319.275 392.647 319.275C371.604 319.275 354.412 301.923 354.412 280.353C354.412 258.783 371.604 241.431 392.647 241.431C413.69 241.431 430.882 258.783 430.882 280.353Z" fill="#514D4D" fill-opacity="0.87" stroke="black" stroke-width="10"/>
<mask id="path-8-inside-1_38_246" fill="white">
<path d="M423.118 382V412.745C423.118 437.207 412.576 460.668 393.811 477.965C375.046 495.263 349.596 504.98 323.059 504.98C296.522 504.98 271.071 495.263 252.307 477.965C233.542 460.668 223 437.207 223 412.745V382"/>
</mask>
<path d="M423.118 382V412.745C423.118 437.207 412.576 460.668 393.811 477.965C375.046 495.263 349.596 504.98 323.059 504.98C296.522 504.98 271.071 495.263 252.307 477.965C233.542 460.668 223 437.207 223 412.745V382" fill="#81D384"/>
<path d="M441.118 382C441.118 372.059 433.059 364 423.118 364C413.177 364 405.118 372.059 405.118 382H441.118ZM423.118 412.745H441.118H423.118ZM323.059 504.98L323.059 522.98L323.059 504.98ZM223 412.745H205H223ZM241 382C241 372.059 232.941 364 223 364C213.059 364 205 372.059 205 382H241ZM405.118 382V412.745H441.118V382H405.118ZM405.118 412.745C405.118 431.939 396.86 450.674 381.611 464.731L406.011 491.2C428.292 470.661 441.118 442.476 441.118 412.745H405.118ZM381.611 464.731C366.313 478.832 345.274 486.98 323.059 486.98L323.059 522.98C353.918 522.98 383.779 511.694 406.011 491.2L381.611 464.731ZM323.059 486.98C300.844 486.98 279.804 478.832 264.507 464.731L240.107 491.2C262.338 511.694 292.199 522.98 323.059 522.98L323.059 486.98ZM264.507 464.731C249.258 450.674 241 431.939 241 412.745H205C205 442.476 217.826 470.661 240.107 491.2L264.507 464.731ZM241 412.745V382H205V412.745H241Z" fill="black" mask="url(#path-8-inside-1_38_246)"/>
<path d="M441.118 382C441.118 372.059 433.059 364 423.118 364C413.177 364 405.118 372.059 405.118 382H441.118ZM423.118 412.745H441.118H423.118ZM323.059 504.98L323.059 522.98L323.059 504.98ZM223 412.745H205H223ZM241 382C241 372.059 232.941 364 223 364C213.059 364 205 372.059 205 382H241ZM405.118 382V412.745H441.118V382H405.118ZM405.118 412.745C405.118 431.939 396.86 450.674 381.611 464.731L406.011 491.2C428.292 470.661 441.118 442.476 441.118 412.745H405.118ZM381.611 464.731C366.313 478.832 345.274 486.98 323.059 486.98L323.059 522.98C353.918 522.98 383.779 511.694 406.011 491.2L381.611 464.731ZM323.059 486.98C300.844 486.98 279.804 478.832 264.507 464.731L240.107 491.2C262.338 511.694 292.199 522.98 323.059 522.98L323.059 486.98ZM264.507 464.731C249.258 450.674 241 431.939 241 412.745H205C205 442.476 217.826 470.661 240.107 491.2L264.507 464.731ZM241 412.745V382H205V412.745H241Z" fill="white" mask="url(#path-8-inside-1_38_246)"/>
<path d="M214.554 344.74C214.567 346.487 214.067 347.853 213.054 348.84C212.041 349.813 210.647 350.3 208.874 350.3C207.821 350.3 206.847 350.06 205.954 349.58C205.074 349.1 204.374 348.42 203.854 347.54C203.334 346.66 203.074 345.647 203.074 344.5V341.58C203.074 340.447 203.321 339.44 203.814 338.56C204.321 337.68 205.007 337 205.874 336.52C206.754 336.027 207.734 335.78 208.814 335.78C210.587 335.78 211.974 336.267 212.974 337.24C213.987 338.2 214.501 339.56 214.514 341.32H210.914C210.901 340.64 210.714 340.113 210.354 339.74C210.007 339.367 209.494 339.18 208.814 339.18C208.201 339.18 207.694 339.373 207.294 339.76C206.894 340.147 206.694 340.693 206.694 341.4V344.66C206.694 345.367 206.901 345.92 207.314 346.32C207.741 346.707 208.261 346.9 208.874 346.9C210.274 346.9 210.974 346.18 210.974 344.74H214.554ZM217.679 336.08H229.559L223.999 344.3V350H223.259V344.3L217.679 336.08ZM244.163 344.74C244.177 346.487 243.677 347.853 242.663 348.84C241.65 349.813 240.257 350.3 238.483 350.3C237.43 350.3 236.457 350.06 235.563 349.58C234.683 349.1 233.983 348.42 233.463 347.54C232.943 346.66 232.683 345.647 232.683 344.5V341.58C232.683 340.447 232.93 339.44 233.423 338.56C233.93 337.68 234.617 337 235.483 336.52C236.363 336.027 237.343 335.78 238.423 335.78C240.197 335.78 241.583 336.267 242.583 337.24C243.597 338.2 244.11 339.56 244.123 341.32H240.523C240.51 340.64 240.323 340.113 239.963 339.74C239.617 339.367 239.103 339.18 238.423 339.18C237.81 339.18 237.303 339.373 236.903 339.76C236.503 340.147 236.303 340.693 236.303 341.4V344.66C236.303 345.367 236.51 345.92 236.923 346.32C237.35 346.707 237.87 346.9 238.483 346.9C239.883 346.9 240.583 346.18 240.583 344.74H244.163ZM259.308 346.46V350H248.708V336.08H249.448V346.46H259.308ZM263.033 336.08H273.173V339.6H266.673V341.36H272.073V344.7H266.673V346.48H273.173V350H263.033V336.08ZM365.106 336.06H378.226L371.666 350.28L365.106 336.06ZM371.666 348.52L377.086 336.8H366.266L371.666 348.52ZM381.97 339.6V336.08H390.97V339.6H386.83V346.48H390.97V350H381.97V346.48H386.11V339.6H381.97ZM401.375 350.36C399.442 350.36 397.948 349.907 396.895 349C395.855 348.08 395.342 346.707 395.355 344.88H398.615C398.602 345.64 398.828 346.22 399.295 346.62C399.762 347.02 400.415 347.22 401.255 347.22C401.948 347.22 402.495 347.107 402.895 346.88C403.295 346.653 403.495 346.307 403.495 345.84C403.495 345.453 403.288 345.173 402.875 345C402.475 344.827 402.075 344.707 401.675 344.64C401.275 344.56 401.028 344.513 400.935 344.5C399.908 344.3 399.022 344.06 398.275 343.78C397.528 343.487 396.902 343.047 396.395 342.46C395.888 341.873 395.635 341.1 395.635 340.14C395.635 339.18 395.888 338.367 396.395 337.7C396.902 337.02 397.575 336.513 398.415 336.18C399.268 335.847 400.195 335.68 401.195 335.68C402.408 335.68 403.455 335.907 404.335 336.36C405.228 336.813 405.928 337.5 406.435 338.42C406.688 338.86 406.842 339.287 406.895 339.7C406.948 340.1 406.975 340.493 406.975 340.88H403.715C403.715 340.16 403.522 339.633 403.135 339.3C402.748 338.953 402.148 338.78 401.335 338.78C400.682 338.78 400.175 338.893 399.815 339.12C399.455 339.347 399.275 339.653 399.275 340.04C399.275 340.467 399.515 340.78 399.995 340.98C400.475 341.18 401.082 341.36 401.815 341.52C403.015 341.76 403.948 341.993 404.615 342.22C405.295 342.433 405.882 342.82 406.375 343.38C406.868 343.94 407.115 344.727 407.115 345.74C407.115 346.7 406.848 347.527 406.315 348.22C405.782 348.913 405.075 349.447 404.195 349.82C403.328 350.18 402.388 350.36 401.375 350.36ZM411.58 339.6V336.08H420.58V339.6H416.44V346.48H420.58V350H411.58V346.48H415.72V339.6H411.58ZM425.084 341.5C425.084 340.46 425.344 339.493 425.864 338.6C426.384 337.707 427.084 337 427.964 336.48C428.858 335.96 429.831 335.7 430.884 335.7C431.938 335.7 432.904 335.96 433.784 336.48C434.678 337 435.384 337.707 435.904 338.6C436.424 339.493 436.684 340.46 436.684 341.5V344.58C436.684 345.62 436.424 346.587 435.904 347.48C435.384 348.373 434.678 349.08 433.784 349.6C432.904 350.12 431.938 350.38 430.884 350.38C429.831 350.38 428.858 350.12 427.964 349.6C427.084 349.08 426.384 348.373 425.864 347.48C425.344 346.587 425.084 345.62 425.084 344.58V341.5ZM428.724 344.58C428.724 345.22 428.924 345.767 429.324 346.22C429.724 346.673 430.244 346.9 430.884 346.9C431.511 346.9 432.024 346.673 432.424 346.22C432.824 345.767 433.024 345.22 433.024 344.58V341.48C433.024 340.827 432.824 340.28 432.424 339.84C432.024 339.4 431.511 339.18 430.884 339.18C430.244 339.18 429.724 339.4 429.324 339.84C428.924 340.28 428.724 340.827 428.724 341.48V344.58ZM440.269 349.98V336.06H441.049L450.769 345.52V336.06H451.509V349.98H440.269Z" fill="black"/>
<path d="M214.554 344.74L215.554 344.732L215.546 343.74H214.554V344.74ZM213.054 348.84L213.747 349.561L213.752 349.556L213.054 348.84ZM205.954 349.58L205.475 350.458L205.481 350.461L205.954 349.58ZM203.854 347.54L202.993 348.049L203.854 347.54ZM203.814 338.56L202.947 338.061L202.942 338.071L203.814 338.56ZM205.874 336.52L206.359 337.395L206.363 337.392L205.874 336.52ZM212.974 337.24L212.277 337.957L212.286 337.966L212.974 337.24ZM214.514 341.32V342.32H215.522L215.514 341.312L214.514 341.32ZM210.914 341.32L209.914 341.34L209.933 342.32H210.914V341.32ZM210.354 339.74L209.621 340.42L209.628 340.427L209.634 340.434L210.354 339.74ZM207.294 339.76L206.599 339.041V339.041L207.294 339.76ZM207.314 346.32L206.619 347.039L206.63 347.05L206.643 347.061L207.314 346.32ZM210.974 344.74V343.74H209.974V344.74H210.974ZM213.554 344.748C213.566 346.29 213.13 347.37 212.356 348.124L213.752 349.556C215.004 348.337 215.569 346.683 215.554 344.732L213.554 344.748ZM212.361 348.119C211.58 348.87 210.46 349.3 208.874 349.3V351.3C210.835 351.3 212.502 350.757 213.747 349.561L212.361 348.119ZM208.874 349.3C207.979 349.3 207.169 349.098 206.427 348.699L205.481 350.461C206.525 351.022 207.662 351.3 208.874 351.3V349.3ZM206.433 348.702C205.714 348.31 205.145 347.759 204.715 347.031L202.993 348.049C203.603 349.081 204.434 349.89 205.475 350.458L206.433 348.702ZM204.715 347.031C204.297 346.323 204.074 345.49 204.074 344.5H202.074C202.074 345.803 202.371 346.997 202.993 348.049L204.715 347.031ZM204.074 344.5V341.58H202.074V344.5H204.074ZM204.074 341.58C204.074 340.596 204.287 339.762 204.686 339.049L202.942 338.071C202.355 339.118 202.074 340.297 202.074 341.58H204.074ZM204.681 339.059C205.099 338.333 205.655 337.784 206.359 337.395L205.39 335.645C204.36 336.216 203.543 337.027 202.947 338.061L204.681 339.059ZM206.363 337.392C207.083 336.989 207.893 336.78 208.814 336.78V334.78C207.575 334.78 206.425 335.065 205.385 335.648L206.363 337.392ZM208.814 336.78C210.401 336.78 211.51 337.211 212.277 337.957L213.672 336.523C212.438 335.323 210.774 334.78 208.814 334.78V336.78ZM212.286 337.966C213.054 338.693 213.502 339.764 213.514 341.328L215.514 341.312C215.499 339.356 214.921 337.707 213.662 336.514L212.286 337.966ZM214.514 340.32H210.914V342.32H214.514V340.32ZM211.914 341.3C211.897 340.449 211.658 339.651 211.074 339.046L209.634 340.434C209.77 340.575 209.904 340.831 209.914 341.34L211.914 341.3ZM211.087 339.06C210.494 338.421 209.675 338.18 208.814 338.18V340.18C209.313 340.18 209.521 340.313 209.621 340.42L211.087 339.06ZM208.814 338.18C207.97 338.18 207.205 338.455 206.599 339.041L207.989 340.479C208.183 340.292 208.431 340.18 208.814 340.18V338.18ZM206.599 339.041C205.955 339.664 205.694 340.5 205.694 341.4H207.694C207.694 340.887 207.833 340.629 207.989 340.479L206.599 339.041ZM205.694 341.4V344.66H207.694V341.4H205.694ZM205.694 344.66C205.694 345.571 205.968 346.409 206.619 347.039L208.009 345.601C207.834 345.431 207.694 345.162 207.694 344.66H205.694ZM206.643 347.061C207.266 347.626 208.03 347.9 208.874 347.9V345.9C208.491 345.9 208.216 345.787 207.986 345.579L206.643 347.061ZM208.874 347.9C209.735 347.9 210.564 347.677 211.166 347.057C211.764 346.443 211.974 345.607 211.974 344.74H209.974C209.974 345.313 209.835 345.557 209.732 345.663C209.635 345.763 209.413 345.9 208.874 345.9V347.9ZM210.974 345.74H214.554V343.74H210.974V345.74ZM217.679 336.08V335.08H215.791L216.851 336.642L217.679 336.08ZM229.559 336.08L230.387 336.64L231.442 335.08H229.559V336.08ZM223.999 344.3L223.17 343.74L222.999 343.994V344.3H223.999ZM223.999 350V351H224.999V350H223.999ZM223.259 350H222.259V351H223.259V350ZM223.259 344.3H224.259V343.993L224.086 343.738L223.259 344.3ZM217.679 337.08H229.559V335.08H217.679V337.08ZM228.73 335.52L223.17 343.74L224.827 344.86L230.387 336.64L228.73 335.52ZM222.999 344.3V350H224.999V344.3H222.999ZM223.999 349H223.259V351H223.999V349ZM224.259 350V344.3H222.259V350H224.259ZM224.086 343.738L218.506 335.518L216.851 336.642L222.431 344.862L224.086 343.738ZM244.163 344.74L245.163 344.732L245.156 343.74H244.163V344.74ZM242.663 348.84L243.356 349.561L243.361 349.556L242.663 348.84ZM235.563 349.58L235.085 350.458L235.09 350.461L235.563 349.58ZM233.463 347.54L232.603 348.049L233.463 347.54ZM233.423 338.56L232.557 338.061L232.551 338.071L233.423 338.56ZM235.483 336.52L235.968 337.395L235.972 337.392L235.483 336.52ZM242.583 337.24L241.886 337.957L241.896 337.966L242.583 337.24ZM244.123 341.32V342.32H245.131L245.123 341.312L244.123 341.32ZM240.523 341.32L239.524 341.34L239.543 342.32H240.523V341.32ZM239.963 339.74L239.231 340.42L239.237 340.427L239.244 340.434L239.963 339.74ZM236.903 339.76L236.208 339.041V339.041L236.903 339.76ZM236.923 346.32L236.228 347.039L236.24 347.05L236.252 347.061L236.923 346.32ZM240.583 344.74V343.74H239.583V344.74H240.583ZM243.163 344.748C243.175 346.29 242.74 347.37 241.966 348.124L243.361 349.556C244.614 348.337 245.178 346.683 245.163 344.732L243.163 344.748ZM241.971 348.119C241.189 348.87 240.069 349.3 238.483 349.3V351.3C240.444 351.3 242.111 350.757 243.356 349.561L241.971 348.119ZM238.483 349.3C237.589 349.3 236.779 349.098 236.037 348.699L235.09 350.461C236.135 351.022 237.272 351.3 238.483 351.3V349.3ZM236.042 348.702C235.324 348.31 234.755 347.759 234.324 347.031L232.603 348.049C233.212 349.081 234.043 349.89 235.085 350.458L236.042 348.702ZM234.324 347.031C233.906 346.323 233.683 345.49 233.683 344.5H231.683C231.683 345.803 231.981 346.997 232.603 348.049L234.324 347.031ZM233.683 344.5V341.58H231.683V344.5H233.683ZM233.683 341.58C233.683 340.596 233.896 339.762 234.296 339.049L232.551 338.071C231.964 339.118 231.683 340.297 231.683 341.58H233.683ZM234.29 339.059C234.708 338.333 235.265 337.784 235.968 337.395L234.999 335.645C233.969 336.216 233.152 337.027 232.557 338.061L234.29 339.059ZM235.972 337.392C236.693 336.989 237.502 336.78 238.423 336.78V334.78C237.185 334.78 236.034 335.065 234.994 335.648L235.972 337.392ZM238.423 336.78C240.01 336.78 241.12 337.211 241.886 337.957L243.281 336.523C242.047 335.323 240.384 334.78 238.423 334.78V336.78ZM241.896 337.966C242.663 338.693 243.112 339.764 243.123 341.328L245.123 341.312C245.109 339.356 244.531 337.707 243.271 336.514L241.896 337.966ZM244.123 340.32H240.523V342.32H244.123V340.32ZM241.523 341.3C241.507 340.449 241.267 339.651 240.683 339.046L239.244 340.434C239.38 340.575 239.514 340.831 239.524 341.34L241.523 341.3ZM240.696 339.06C240.103 338.421 239.284 338.18 238.423 338.18V340.18C238.923 340.18 239.131 340.313 239.231 340.42L240.696 339.06ZM238.423 338.18C237.58 338.18 236.815 338.455 236.208 339.041L237.598 340.479C237.792 340.292 238.04 340.18 238.423 340.18V338.18ZM236.208 339.041C235.564 339.664 235.303 340.5 235.303 341.4H237.303C237.303 340.887 237.443 340.629 237.598 340.479L236.208 339.041ZM235.303 341.4V344.66H237.303V341.4H235.303ZM235.303 344.66C235.303 345.571 235.577 346.409 236.228 347.039L237.619 345.601C237.443 345.431 237.303 345.162 237.303 344.66H235.303ZM236.252 347.061C236.875 347.626 237.64 347.9 238.483 347.9V345.9C238.101 345.9 237.825 345.787 237.595 345.579L236.252 347.061ZM238.483 347.9C239.345 347.9 240.173 347.677 240.775 347.057C241.373 346.443 241.583 345.607 241.583 344.74H239.583C239.583 345.313 239.444 345.557 239.341 345.663C239.244 345.763 239.022 345.9 238.483 345.9V347.9ZM240.583 345.74H244.163V343.74H240.583V345.74ZM259.308 346.46H260.308V345.46H259.308V346.46ZM259.308 350V351H260.308V350H259.308ZM248.708 350H247.708V351H248.708V350ZM248.708 336.08V335.08H247.708V336.08H248.708ZM249.448 336.08H250.448V335.08H249.448V336.08ZM249.448 346.46H248.448V347.46H249.448V346.46ZM258.308 346.46V350H260.308V346.46H258.308ZM259.308 349H248.708V351H259.308V349ZM249.708 350V336.08H247.708V350H249.708ZM248.708 337.08H249.448V335.08H248.708V337.08ZM248.448 336.08V346.46H250.448V336.08H248.448ZM249.448 347.46H259.308V345.46H249.448V347.46ZM263.033 336.08V335.08H262.033V336.08H263.033ZM273.173 336.08H274.173V335.08H273.173V336.08ZM273.173 339.6V340.6H274.173V339.6H273.173ZM266.673 339.6V338.6H265.673V339.6H266.673ZM266.673 341.36H265.673V342.36H266.673V341.36ZM272.073 341.36H273.073V340.36H272.073V341.36ZM272.073 344.7V345.7H273.073V344.7H272.073ZM266.673 344.7V343.7H265.673V344.7H266.673ZM266.673 346.48H265.673V347.48H266.673V346.48ZM273.173 346.48H274.173V345.48H273.173V346.48ZM273.173 350V351H274.173V350H273.173ZM263.033 350H262.033V351H263.033V350ZM263.033 337.08H273.173V335.08H263.033V337.08ZM272.173 336.08V339.6H274.173V336.08H272.173ZM273.173 338.6H266.673V340.6H273.173V338.6ZM265.673 339.6V341.36H267.673V339.6H265.673ZM266.673 342.36H272.073V340.36H266.673V342.36ZM271.073 341.36V344.7H273.073V341.36H271.073ZM272.073 343.7H266.673V345.7H272.073V343.7ZM265.673 344.7V346.48H267.673V344.7H265.673ZM266.673 347.48H273.173V345.48H266.673V347.48ZM272.173 346.48V350H274.173V346.48H272.173ZM273.173 349H263.033V351H273.173V349ZM264.033 350V336.08H262.033V350H264.033ZM365.106 336.06V335.06H363.543L364.198 336.479L365.106 336.06ZM378.226 336.06L379.134 336.479L379.788 335.06H378.226V336.06ZM371.666 350.28L370.758 350.699L371.666 352.667L372.574 350.699L371.666 350.28ZM371.666 348.52L370.757 348.938L371.664 350.906L372.573 348.94L371.666 348.52ZM377.086 336.8L377.993 337.22L378.65 335.8H377.086V336.8ZM366.266 336.8V335.8H364.704L365.357 337.218L366.266 336.8ZM365.106 337.06H378.226V335.06H365.106V337.06ZM377.318 335.641L370.758 349.861L372.574 350.699L379.134 336.479L377.318 335.641ZM372.574 349.861L366.014 335.641L364.198 336.479L370.758 350.699L372.574 349.861ZM372.573 348.94L377.993 337.22L376.178 336.38L370.758 348.1L372.573 348.94ZM377.086 335.8H366.266V337.8H377.086V335.8ZM365.357 337.218L370.757 348.938L372.574 348.102L367.174 336.382L365.357 337.218ZM381.97 339.6H380.97V340.6H381.97V339.6ZM381.97 336.08V335.08H380.97V336.08H381.97ZM390.97 336.08H391.97V335.08H390.97V336.08ZM390.97 339.6V340.6H391.97V339.6H390.97ZM386.83 339.6V338.6H385.83V339.6H386.83ZM386.83 346.48H385.83V347.48H386.83V346.48ZM390.97 346.48H391.97V345.48H390.97V346.48ZM390.97 350V351H391.97V350H390.97ZM381.97 350H380.97V351H381.97V350ZM381.97 346.48V345.48H380.97V346.48H381.97ZM386.11 346.48V347.48H387.11V346.48H386.11ZM386.11 339.6H387.11V338.6H386.11V339.6ZM382.97 339.6V336.08H380.97V339.6H382.97ZM381.97 337.08H390.97V335.08H381.97V337.08ZM389.97 336.08V339.6H391.97V336.08H389.97ZM390.97 338.6H386.83V340.6H390.97V338.6ZM385.83 339.6V346.48H387.83V339.6H385.83ZM386.83 347.48H390.97V345.48H386.83V347.48ZM389.97 346.48V350H391.97V346.48H389.97ZM390.97 349H381.97V351H390.97V349ZM382.97 350V346.48H380.97V350H382.97ZM381.97 347.48H386.11V345.48H381.97V347.48ZM387.11 346.48V339.6H385.11V346.48H387.11ZM386.11 338.6H381.97V340.6H386.11V338.6ZM396.895 349L396.232 349.749L396.243 349.758L396.895 349ZM395.355 344.88V343.88H394.362L394.355 344.873L395.355 344.88ZM398.615 344.88L399.615 344.898L399.633 343.88H398.615V344.88ZM399.295 346.62L399.946 345.861V345.861L399.295 346.62ZM402.895 346.88L403.388 347.75L402.895 346.88ZM402.875 345L402.477 345.918L402.488 345.922L402.875 345ZM401.675 344.64L401.479 345.621L401.495 345.624L401.511 345.626L401.675 344.64ZM400.935 344.5L400.744 345.482L400.769 345.486L400.794 345.49L400.935 344.5ZM398.275 343.78L397.909 344.711L397.917 344.714L397.924 344.716L398.275 343.78ZM396.395 342.46L395.638 343.114L396.395 342.46ZM396.395 337.7L397.191 338.305L397.197 338.297L396.395 337.7ZM398.415 336.18L398.051 335.249L398.046 335.251L398.415 336.18ZM404.335 336.36L403.877 337.249L403.882 337.252L404.335 336.36ZM406.435 338.42L405.559 338.902L405.564 338.911L405.568 338.919L406.435 338.42ZM406.895 339.7L405.903 339.828L405.904 339.832L406.895 339.7ZM406.975 340.88V341.88H407.975V340.88H406.975ZM403.715 340.88H402.715V341.88H403.715V340.88ZM403.135 339.3L402.467 340.045L402.475 340.051L402.482 340.057L403.135 339.3ZM399.815 339.12L400.348 339.966V339.966L399.815 339.12ZM399.995 340.98L400.38 340.057L400.38 340.057L399.995 340.98ZM401.815 341.52L401.602 342.497L401.61 342.499L401.619 342.501L401.815 341.52ZM404.615 342.22L404.293 343.167L404.304 343.171L404.316 343.174L404.615 342.22ZM406.375 343.38L405.625 344.041L406.375 343.38ZM404.195 349.82L404.579 350.744L404.586 350.741L404.195 349.82ZM401.375 349.36C399.588 349.36 398.359 348.941 397.547 348.242L396.243 349.758C397.537 350.872 399.295 351.36 401.375 351.36V349.36ZM397.558 348.251C396.797 347.578 396.343 346.522 396.355 344.887L394.355 344.873C394.34 346.892 394.913 348.582 396.232 349.749L397.558 348.251ZM395.355 345.88H398.615V343.88H395.355V345.88ZM397.615 344.862C397.598 345.843 397.899 346.74 398.644 347.379L399.946 345.861C399.758 345.7 399.605 345.437 399.615 344.898L397.615 344.862ZM398.644 347.379C399.349 347.983 400.264 348.22 401.255 348.22V346.22C400.566 346.22 400.174 346.057 399.946 345.861L398.644 347.379ZM401.255 348.22C402.04 348.22 402.78 348.094 403.388 347.75L402.402 346.01C402.21 346.119 401.857 346.22 401.255 346.22V348.22ZM403.388 347.75C404.107 347.343 404.495 346.66 404.495 345.84H402.495C402.495 345.885 402.49 345.914 402.486 345.929C402.483 345.943 402.48 345.949 402.479 345.95C402.478 345.952 402.475 345.956 402.467 345.965C402.457 345.973 402.438 345.99 402.402 346.01L403.388 347.75ZM404.495 345.84C404.495 345.458 404.389 345.077 404.145 344.746C403.907 344.425 403.588 344.215 403.262 344.078L402.488 345.922C402.576 345.959 402.566 345.975 402.535 345.934C402.52 345.913 402.508 345.889 402.501 345.866C402.494 345.844 402.495 345.833 402.495 345.84H404.495ZM403.273 344.082C402.804 343.879 402.325 343.735 401.839 343.654L401.511 345.626C401.825 345.679 402.146 345.774 402.477 345.918L403.273 344.082ZM401.871 343.659C401.483 343.582 401.204 343.528 401.076 343.51L400.794 345.49C400.853 345.498 401.067 345.538 401.479 345.621L401.871 343.659ZM401.126 343.518C400.138 343.326 399.308 343.099 398.626 342.844L397.924 344.716C398.736 345.021 399.678 345.274 400.744 345.482L401.126 343.518ZM398.641 342.849C398.039 342.613 397.549 342.266 397.152 341.806L395.638 343.114C396.255 343.827 397.017 344.36 397.909 344.711L398.641 342.849ZM397.152 341.806C396.837 341.442 396.635 340.919 396.635 340.14H394.635C394.635 341.281 394.94 342.305 395.638 343.114L397.152 341.806ZM396.635 340.14C396.635 339.365 396.836 338.773 397.191 338.305L395.599 337.095C394.941 337.96 394.635 338.995 394.635 340.14H396.635ZM397.197 338.297C397.585 337.776 398.104 337.379 398.784 337.109L398.046 335.251C397.046 335.648 396.218 336.264 395.593 337.103L397.197 338.297ZM398.779 337.111C399.506 336.827 400.308 336.68 401.195 336.68V334.68C400.082 334.68 399.031 334.866 398.051 335.249L398.779 337.111ZM401.195 336.68C402.284 336.68 403.167 336.883 403.877 337.249L404.793 335.471C403.743 334.93 402.532 334.68 401.195 334.68V336.68ZM403.882 337.252C404.588 337.61 405.144 338.149 405.559 338.902L407.311 337.938C406.712 336.851 405.869 336.017 404.788 335.468L403.882 337.252ZM405.568 338.919C405.77 339.269 405.87 339.571 405.903 339.828L407.887 339.572C407.813 339.003 407.607 338.451 407.302 337.921L405.568 338.919ZM405.904 339.832C405.952 340.19 405.975 340.539 405.975 340.88H407.975C407.975 340.447 407.945 340.01 407.886 339.568L405.904 339.832ZM406.975 339.88H403.715V341.88H406.975V339.88ZM404.715 340.88C404.715 339.993 404.474 339.134 403.788 338.543L402.482 340.057C402.569 340.133 402.715 340.327 402.715 340.88H404.715ZM403.803 338.555C403.153 337.973 402.261 337.78 401.335 337.78V339.78C402.035 339.78 402.344 339.934 402.467 340.045L403.803 338.555ZM401.335 337.78C400.586 337.78 399.866 337.906 399.282 338.274L400.348 339.966C400.484 339.88 400.777 339.78 401.335 339.78V337.78ZM399.282 338.274C398.666 338.662 398.275 339.271 398.275 340.04H400.275C400.275 340.021 400.277 340.015 400.277 340.016C400.276 340.018 400.275 340.023 400.272 340.026C400.267 340.036 400.277 340.011 400.348 339.966L399.282 338.274ZM398.275 340.04C398.275 340.454 398.396 340.857 398.661 341.203C398.916 341.536 399.259 341.756 399.61 341.903L400.38 340.057C400.251 340.004 400.234 339.967 400.249 339.987C400.257 339.997 400.266 340.013 400.271 340.03C400.277 340.047 400.275 340.052 400.275 340.04H398.275ZM399.61 341.903C400.164 342.134 400.833 342.329 401.602 342.497L402.028 340.543C401.33 340.391 400.786 340.226 400.38 340.057L399.61 341.903ZM401.619 342.501C402.802 342.737 403.687 342.961 404.293 343.167L404.937 341.273C404.21 341.026 403.228 340.783 402.011 340.539L401.619 342.501ZM404.316 343.174C404.813 343.33 405.246 343.611 405.625 344.041L407.125 342.719C406.517 342.029 405.777 341.537 404.914 341.266L404.316 343.174ZM405.625 344.041C405.907 344.362 406.115 344.882 406.115 345.74H408.115C408.115 344.571 407.829 343.518 407.125 342.719L405.625 344.041ZM406.115 345.74C406.115 346.502 405.908 347.109 405.522 347.61L407.108 348.83C407.789 347.944 408.115 346.898 408.115 345.74H406.115ZM405.522 347.61C405.104 348.155 404.541 348.587 403.804 348.899L404.586 350.741C405.609 350.306 406.46 349.672 407.108 348.83L405.522 347.61ZM403.811 348.897C403.076 349.202 402.267 349.36 401.375 349.36V351.36C402.509 351.36 403.581 351.158 404.579 350.743L403.811 348.897ZM411.58 339.6H410.58V340.6H411.58V339.6ZM411.58 336.08V335.08H410.58V336.08H411.58ZM420.58 336.08H421.58V335.08H420.58V336.08ZM420.58 339.6V340.6H421.58V339.6H420.58ZM416.44 339.6V338.6H415.44V339.6H416.44ZM416.44 346.48H415.44V347.48H416.44V346.48ZM420.58 346.48H421.58V345.48H420.58V346.48ZM420.58 350V351H421.58V350H420.58ZM411.58 350H410.58V351H411.58V350ZM411.58 346.48V345.48H410.58V346.48H411.58ZM415.72 346.48V347.48H416.72V346.48H415.72ZM415.72 339.6H416.72V338.6H415.72V339.6ZM412.58 339.6V336.08H410.58V339.6H412.58ZM411.58 337.08H420.58V335.08H411.58V337.08ZM419.58 336.08V339.6H421.58V336.08H419.58ZM420.58 338.6H416.44V340.6H420.58V338.6ZM415.44 339.6V346.48H417.44V339.6H415.44ZM416.44 347.48H420.58V345.48H416.44V347.48ZM419.58 346.48V350H421.58V346.48H419.58ZM420.58 349H411.58V351H420.58V349ZM412.58 350V346.48H410.58V350H412.58ZM411.58 347.48H415.72V345.48H411.58V347.48ZM416.72 346.48V339.6H414.72V346.48H416.72ZM415.72 338.6H411.58V340.6H415.72V338.6ZM425.864 338.6L425 338.097V338.097L425.864 338.6ZM427.964 336.48L427.461 335.616L427.456 335.619L427.964 336.48ZM433.784 336.48L433.276 337.341L433.281 337.344L433.784 336.48ZM435.904 338.6L436.769 338.097V338.097L435.904 338.6ZM435.904 347.48L436.769 347.983V347.983L435.904 347.48ZM433.784 349.6L433.281 348.736L433.276 348.739L433.784 349.6ZM427.964 349.6L427.456 350.461L427.461 350.464L427.964 349.6ZM425.864 347.48L425 347.983L425.864 347.48ZM429.324 346.22L430.074 345.558L429.324 346.22ZM432.424 346.22L431.675 345.558L432.424 346.22ZM432.424 339.84L433.164 339.167L432.424 339.84ZM429.324 339.84L428.584 339.167L429.324 339.84ZM426.084 341.5C426.084 340.636 426.298 339.843 426.729 339.103L425 338.097C424.391 339.144 424.084 340.284 424.084 341.5H426.084ZM426.729 339.103C427.164 338.356 427.742 337.773 428.473 337.341L427.456 335.619C426.427 336.227 425.605 337.058 425 338.097L426.729 339.103ZM428.467 337.344C429.205 336.915 430.004 336.7 430.884 336.7V334.7C429.658 334.7 428.51 335.005 427.461 335.616L428.467 337.344ZM430.884 336.7C431.764 336.7 432.555 336.915 433.276 337.341L434.293 335.619C433.254 335.005 432.111 334.7 430.884 334.7V336.7ZM433.281 337.344C434.025 337.777 434.607 338.359 435.04 339.103L436.769 338.097C436.162 337.054 435.33 336.223 434.287 335.616L433.281 337.344ZM435.04 339.103C435.471 339.843 435.684 340.636 435.684 341.5H437.684C437.684 340.284 437.378 339.144 436.769 338.097L435.04 339.103ZM435.684 341.5V344.58H437.684V341.5H435.684ZM435.684 344.58C435.684 345.444 435.471 346.237 435.04 346.977L436.769 347.983C437.378 346.936 437.684 345.796 437.684 344.58H435.684ZM435.04 346.977C434.607 347.721 434.025 348.303 433.281 348.736L434.287 350.464C435.33 349.857 436.162 349.026 436.769 347.983L435.04 346.977ZM433.276 348.739C432.555 349.165 431.764 349.38 430.884 349.38V351.38C432.111 351.38 433.254 351.075 434.293 350.461L433.276 348.739ZM430.884 349.38C430.004 349.38 429.205 349.165 428.467 348.736L427.461 350.464C428.51 351.075 429.658 351.38 430.884 351.38V349.38ZM428.473 348.739C427.742 348.307 427.164 347.724 426.729 346.977L425 347.983C425.605 349.022 426.427 349.853 427.456 350.461L428.473 348.739ZM426.729 346.977C426.298 346.237 426.084 345.444 426.084 344.58H424.084C424.084 345.796 424.391 346.936 425 347.983L426.729 346.977ZM426.084 344.58V341.5H424.084V344.58H426.084ZM427.724 344.58C427.724 345.448 428.003 346.234 428.575 346.882L430.074 345.558C429.845 345.299 429.724 344.992 429.724 344.58H427.724ZM428.575 346.882C429.177 347.564 429.977 347.9 430.884 347.9V345.9C430.512 345.9 430.272 345.783 430.074 345.558L428.575 346.882ZM430.884 347.9C431.786 347.9 432.577 347.559 433.174 346.882L431.675 345.558C431.472 345.788 431.236 345.9 430.884 345.9V347.9ZM433.174 346.882C433.745 346.234 434.024 345.448 434.024 344.58H432.024C432.024 344.992 431.903 345.299 431.675 345.558L433.174 346.882ZM434.024 344.58V341.48H432.024V344.58H434.024ZM434.024 341.48C434.024 340.604 433.749 339.81 433.164 339.167L431.684 340.513C431.9 340.75 432.024 341.049 432.024 341.48H434.024ZM433.164 339.167C432.564 338.507 431.776 338.18 430.884 338.18V340.18C431.246 340.18 431.485 340.293 431.684 340.513L433.164 339.167ZM430.884 338.18C429.987 338.18 429.19 338.502 428.584 339.167L430.064 340.513C430.259 340.298 430.502 340.18 430.884 340.18V338.18ZM428.584 339.167C428 339.81 427.724 340.604 427.724 341.48H429.724C429.724 341.049 429.849 340.75 430.064 340.513L428.584 339.167ZM427.724 341.48V344.58H429.724V341.48H427.724ZM440.269 349.98H439.269V350.98H440.269V349.98ZM440.269 336.06V335.06H439.269V336.06H440.269ZM441.049 336.06L441.747 335.343L441.455 335.06H441.049V336.06ZM450.769 345.52L450.072 346.237L451.769 347.889V345.52H450.769ZM450.769 336.06V335.06H449.769V336.06H450.769ZM451.509 336.06H452.509V335.06H451.509V336.06ZM451.509 349.98V350.98H452.509V349.98H451.509ZM441.269 349.98V336.06H439.269V349.98H441.269ZM440.269 337.06H441.049V335.06H440.269V337.06ZM440.352 336.777L450.072 346.237L451.467 344.803L441.747 335.343L440.352 336.777ZM451.769 345.52V336.06H449.769V345.52H451.769ZM450.769 337.06H451.509V335.06H450.769V337.06ZM450.509 336.06V349.98H452.509V336.06H450.509ZM451.509 348.98H440.269V350.98H451.509V348.98Z" fill="#514D4D" fill-opacity="0.5"/>
<path d="M376.865 243.115L377.855 244.803L379.732 244.248C384.406 242.864 389.31 241.984 394.458 241.984C420.209 241.984 440.5 260.11 440.5 281.742C440.5 303.373 420.209 321.5 394.458 321.5C368.709 321.5 348.419 303.376 348.417 281.746C348.426 275.529 350.135 269.385 353.427 263.818C356.72 258.249 361.512 253.408 367.432 249.719L369.508 248.426L368.26 246.322L360.591 233.391L358.269 229.477L356.211 233.536L329.819 285.581H306.307H304.201L303.843 287.656C300.59 306.534 281.819 321.5 258.542 321.5C232.791 321.5 212.5 303.373 212.5 281.742C212.5 260.11 232.791 241.984 258.542 241.984C281.819 241.984 300.59 256.95 303.843 275.828L304.201 277.903H306.307H315.432H319.45L317.675 274.299L295.832 229.928L295.145 228.532H293.589H287.667C284.61 228.532 282.788 226.444 282.788 224.694C282.788 222.943 284.61 220.855 287.667 220.855H307.083C309.974 220.855 311.767 222.883 311.767 224.694C311.767 226.025 310.542 227.588 308.549 228.23L305.809 229.114L307.068 231.703L324.252 267.031L326.439 271.527L328.724 267.08L352.218 221.357L352.846 220.133L352.149 218.947L343.606 204.411L342.881 203.177H341.451H319.292V195.5H348.95L376.865 243.115ZM258.542 313.823H258.545C266.764 313.813 274.77 311.361 281.233 306.823C287.7 302.283 292.264 295.901 294.072 288.688L294.851 285.581H291.647H282.693L282.395 277.903H291.647H294.845L294.073 274.8C290.45 260.236 275.706 249.661 258.542 249.661C238.761 249.661 222.062 263.735 222.062 281.742C222.062 299.748 238.761 313.823 258.542 313.823ZM374.941 257.871L373.531 255.568L371.343 257.151C363.343 262.94 357.979 271.67 357.979 281.742C357.979 299.748 374.677 313.823 394.458 313.823C414.239 313.823 430.938 299.748 430.938 281.742C430.938 263.735 414.239 249.661 394.458 249.661C391.182 249.661 388.064 250.213 385.207 250.813L382.061 251.474L383.476 254.36L387.409 262.383L379.961 266.073L374.941 257.871Z" fill="#514D4D" fill-opacity="0.87" stroke="black" stroke-width="5"/>
</g>
<defs>
<clipPath id="clip0_38_246">
<rect width="504" height="512" fill="white" transform="matrix(-1 0 0 -1 573 638)"/>
</clipPath>
</defs>
</svg>
